<?xml version="1.0" encoding="UTF-8"?>
<!DOCTYPE svg PUBLIC "-//W3C//DTD SVG 1.1//EN" "http://www.w3.org/Graphics/SVG/1.1/DTD/svg11.dtd">
<!-- Creator: CorelDRAW X7 -->
<svg xmlns="http://www.w3.org/2000/svg" xml:space="preserve" width="127mm" height="127mm" version="1.1" style="shape-rendering:geometricPrecision; text-rendering:geometricPrecision; image-rendering:optimizeQuality; fill-rule:evenodd; clip-rule:evenodd"
viewBox="0 0 12700 12700"
 xmlns:xlink="http://www.w3.org/1999/xlink">
 <defs>
  <style type="text/css">
   <![CDATA[
    .fil0 {fill:url(#id0);fill-rule:nonzero}
   ]]>
  </style>
  <linearGradient id="id0" gradientUnits="userSpaceOnUse" x1="0.01" y1="6350.01" x2="12700" y2="6350.01">
   <stop offset="0" style="stop-opacity:1; stop-color:#AF7931"/>
   <stop offset="0.6" style="stop-opacity:1; stop-color:#AF7931"/>
   <stop offset="0.509804" style="stop-opacity:1; stop-color:#FCF08A"/>
   <stop offset="1" style="stop-opacity:1; stop-color:#AF7931"/>
  </linearGradient>
 </defs>
 <g id="Camada_x0020_1">
  <metadata id="CorelCorpID_0Corel-Layer"/>
  <path class="fil0" d="M7620 6162l0 1128 -376 0 0 -1128m0 -376l-752 0 0 -376 2550 0 376 0 1128 0 -138 376 -1503 0 0 0 -1285 0m-7244 0l0 376 830 0 -168 376 466 0 0 376 -1188 0 -148 0 -168 376 316 0 1050 0 513 0 0 -1128 -673 0 -351 0 -168 376 -687 0 0 -1128 514 0 1034 0 331 0 -168 376 -1335 0zm2540 1504l0 -752 -752 -1128 470 0 470 658 475 -658 465 0 -752 1128 0 752 -376 0zm1412 0l0 -1880 376 0 1128 1333 0 -1333 376 0 0 1880 -376 0 -1128 -1292 0 1292 -376 0zm6493 -1880l1879 0 0 376 -1503 0 0 1128 1503 0 0 376 -1879 0 0 -1880zm-2040 752l1503 0 -138 376 -1503 0 138 -376zm-239 752l1504 0 -138 376 -1504 0 138 -376zm165 -752l1504 0 -138 376 -1503 0 137 -376z"/>
 </g>
</svg>
